HIERARCHY
ROOT Hips
{
  OFFSET 57.8838 95.319 338.509
  CHANNELS 6 Xposition Yposition Zposition Zrotation Xrotation Yrotation
  JOINT LeftUpLeg
  {
    OFFSET 8.64259 1.95398 -2.38835
    CHANNELS 3 Zrotation Xrotation Yrotation
    JOINT LeftLeg
    {
      OFFSET 43.7702 0 0
      CHANNELS 3 Zrotation Xrotation Yrotation
      JOINT LeftFoot
      {
        OFFSET 40.6238 0 0
        CHANNELS 3 Zrotation Xrotation Yrotation
        JOINT LeftToeBase
        {
          OFFSET 12.7242 0 0
          CHANNELS 3 Zrotation Xrotation Yrotation
          End Site
          {
            OFFSET 0 0 0
          }
        }
      }
    }
  }
  JOINT RightUpLeg
  {
    OFFSET -8.2249 1.95398 -2.59336
    CHANNELS 3 Zrotation Xrotation Yrotation
    JOINT RightLeg
    {
      OFFSET 43.5653 0 0
      CHANNELS 3 Zrotation Xrotation Yrotation
      JOINT RightFoot
      {
        OFFSET 40.6238 0 0
        CHANNELS 3 Zrotation Xrotation Yrotation
        JOINT RightToeBase
        {
          OFFSET 12.7242 0 0
          CHANNELS 3 Zrotation Xrotation Yrotation
          End Site
          {
            OFFSET 0 0 0
          }
        }
      }
    }
  }
  JOINT Spine
  {
    OFFSET 0.165834 0.87714 6.61349
    CHANNELS 3 Zrotation Xrotation Yrotation
    JOINT Spine1
    {
      OFFSET 7.38963 1.71661e-005 0
      CHANNELS 3 Zrotation Xrotation Yrotation
      JOINT Spine2
      {
        OFFSET 11.9445 1.14441e-005 0
        CHANNELS 3 Zrotation Xrotation Yrotation
        JOINT Spine3
        {
          OFFSET 14.7254 4.19617e-005 0
          CHANNELS 3 Zrotation Xrotation Yrotation
          JOINT Spine4
          {
            OFFSET 10.9679 0 0
            CHANNELS 3 Zrotation Xrotation Yrotation
            JOINT RightShoulder
            {
              OFFSET 2.46616 -1.6653 3.69651
              CHANNELS 3 Zrotation Xrotation Yrotation
              JOINT RightArm
              {
                OFFSET 13.0012 0 0
                CHANNELS 3 Zrotation Xrotation Yrotation
                JOINT RightForeArm
                {
                  OFFSET 28.7848 1.62311e-005 0
                  CHANNELS 3 Zrotation Xrotation Yrotation
                  JOINT RightHand
                  {
                    OFFSET 26.5688 1.62095e-005 0
                    CHANNELS 3 Zrotation Xrotation Yrotation
                    End Site
                    {
                      OFFSET 0 0 0
                    }
                  }
                }
              }
            }
            JOINT LeftShoulder
            {
              OFFSET 2.38034 -1.29275 -3.7523
              CHANNELS 3 Zrotation Xrotation Yrotation
              JOINT LeftArm
              {
                OFFSET 16.3182 6.07031e-005 0
                CHANNELS 3 Zrotation Xrotation Yrotation
                JOINT LeftForeArm
                {
                  OFFSET 27.0901 0 0
                  CHANNELS 3 Zrotation Xrotation Yrotation
                  JOINT LeftHand
                  {
                    OFFSET 24.5451 1.51738e-005 0
                    CHANNELS 3 Zrotation Xrotation Yrotation
                    End Site
                    {
                      OFFSET 0 0 0
                    }
                  }
                }
              }
            }
            JOINT Neck
            {
              OFFSET 5.0226 -0.0266342 0
              CHANNELS 3 Zrotation Xrotation Yrotation
              JOINT Head
              {
                OFFSET 6.69364 2.86102e-005 0
                CHANNELS 3 Zrotation Xrotation Yrotation
                End Site
                {
                  OFFSET 0 0 0
                }
              }
            }
          }
        }
      }
    }
  }
}
MOTION
Frames:	10
Frame Time:	0.0416667
-142.366 97.4504 -18.2118 149.474 -86.6389 149.661 -178.958 -1.87625 87.1592 -9.0833 17.8123 1.36855 58.0529 3.4406 10.8161 36.181 3.04153 3.06472 173.5 1.78283 92.8827 -18.0865 -2.5089 -0.389641 67.4884 -1.547 7.60907 28.5344 0.260665 1.50947 0.073744 7.03435 -90.1956 12.8051 0.0528799 -0.397339 1.13407 0.0353359 -0.39929 -21.4007 0.169845 -0.363085 -1.38802 0.169848 -0.363083 96.0311 -54.2825 -91.0302 28.2886 -1.48758 -10.943 2.64104 -10.4542 -13.3769 -16.2382 -1.09833 2.70654 -82.3411 -51.1801 90.3571 -41.9762 -25.9867 -23.6855 6.54416 65.7484 0.0205322 3.39641 -0.212817 -12.5035 10.3411 0.487557 -5.8542 -17.7591 0.734159 7.90423 
-142.401 97.4821 -18.1695 148.622 -86.5381 148.85 -178.886 -2.06817 87.2414 -8.91432 17.8545 1.38545 58.1987 3.64088 10.6444 35.9742 2.95446 3.30066 173.511 1.88305 93.007 -18.5294 -0.379479 -0.658119 68.3277 -0.936009 9.87503 27.4847 1.58309 2.13953 0.0435409 7.02321 -90.2218 12.8272 -0.0196723 -0.44084 1.15617 -0.0390554 -0.43955 -21.3784 0.113725 -0.42637 -1.36576 0.113726 -0.426373 95.8201 -54.091 -91.363 28.3908 -1.39195 -10.707 2.50418 -11.715 -13.1435 -16.1486 -1.09973 2.76181 -82.2193 -51.8047 90.5879 -41.3087 -26.0294 -23.4497 6.51615 66.0715 0.0207929 4.18953 -0.332042 -13.5396 9.70901 0.692462 -4.70244 -17.1036 0.857312 6.67532 
-142.366 97.4945 -18.136 147.281 -86.6499 147.287 -179.119 -2.21151 86.9488 -8.46587 17.9564 1.39708 58.1091 3.82553 10.8871 35.9586 2.95051 3.54031 173.33 2.37949 92.7251 -19.2501 1.28528 -0.788339 69.2216 -0.572725 11.7127 26.5866 2.68989 2.61498 0.0343945 6.99932 -90.2171 12.875 -0.0356864 -0.429717 1.20398 -0.0545637 -0.427735 -21.3306 0.0951126 -0.420576 -1.31797 0.0951046 -0.420584 95.8173 -53.8292 -91.3967 28.353 -2.20176 -10.3158 2.55575 -11.4301 -13.4055 -16.515 -1.11323 2.67496 -82.1936 -52.2885 90.6648 -40.8761 -26.0221 -23.3392 6.5709 66.4628 0.0211184 4.46833 -0.377865 -14.0014 10.257 0.687946 -6.42846 -18.299 0.809632 9.36169 
-142.314 97.4938 -18.1241 147.005 -86.9265 146.844 -179.262 -1.95303 86.7525 -8.4229 17.4561 1.35407 58.1486 3.7097 10.7405 35.8682 2.90714 3.22612 173.262 2.76288 92.505 -19.4795 1.0344 -0.749785 69.2634 -0.561972 11.6872 26.4923 2.80915 2.62547 0.0426137 6.97913 -90.1925 12.9154 -0.00765035 -0.38396 1.2444 -0.0245384 -0.38325 -21.2903 0.108096 -0.368507 -1.27768 0.10809 -0.368512 95.7418 -54.0063 -91.4881 28.068 -2.59816 -10.1581 2.55745 -10.9656 -13.7572 -16.3914 -1.15644 3.04709 -82.1773 -52.2154 90.6827 -40.7442 -25.79 -23.2942 6.46355 66.8313 0.0214353 4.17513 -0.347565 -13.8454 10.5628 0.650877 -7.4059 -18.6344 0.816567 10.5691 
-142.345 97.5066 -18.1341 149.101 -86.7575 149.067 -179.146 -2.18783 86.8818 -8.44569 17.5308 1.38159 58.1896 3.78671 10.6469 35.8425 2.89975 3.57055 173.364 2.46648 92.7072 -19.2485 1.05858 -0.817575 69.1271 -0.539201 11.5789 26.6835 2.57707 2.49519 0.053061 6.99991 -90.2174 12.874 0.00124949 -0.435054 1.20297 -0.0179039 -0.434696 -21.3316 0.131932 -0.41457 -1.319 0.131936 -0.414573 95.9128 -53.9444 -91.2424 28.1328 -2.45443 -10.3063 2.59631 -11.1465 -13.3863 -16.4162 -1.08397 2.51896 -82.1807 -52.3346 90.6872 -40.7212 -25.772 -23.4476 6.30038 66.3398 0.0210149 4.01555 -0.29371 -13.178 10.4167 0.61085 -6.88587 -18.3676 0.757565 9.97716 
-142.384 97.4968 -18.1706 148.925 -86.1286 149.447 -178.607 -2.64569 87.5859 -8.55086 18.3749 1.41639 58.1171 3.90544 10.6744 36.0343 2.98311 3.47161 173.519 1.56883 93.2744 -18.6949 1.49477 -0.832347 68.8972 -0.463054 11.5631 26.6639 2.58764 2.66448 0.0192737 7.05615 -90.2814 12.7609 -0.0962672 -0.550953 1.08983 -0.120416 -0.54619 -21.4444 0.0737634 -0.554414 -1.43175 0.0737681 -0.554414 95.8627 -53.976 -91.3133 28.1341 -2.41669 -10.2235 2.40863 -11.3009 -13.6428 -15.7494 -1.09399 2.92638 -82.146 -52.38 90.7414 -40.5972 -25.7922 -23.3528 5.77872 64.395 0.0195145 3.69281 -0.217962 -12.2044 10.456 0.705541 -6.77612 -18.5231 0.833493 9.84373 
-142.367 97.5103 -18.1637 147.612 -86.1751 148.084 -178.689 -2.55148 87.5074 -8.54483 18.4946 1.42668 58.0035 3.72535 10.7551 36.0536 2.99095 3.43212 173.508 1.63966 93.2409 -18.6535 1.58293 -0.848137 68.9415 -0.474375 11.6623 26.4953 2.8018 2.66555 0.00564713 7.04729 -90.2823 12.7786 -0.123774 -0.549462 1.10759 -0.147841 -0.54349 -21.4266 0.0470784 -0.561265 -1.41399 0.047085 -0.561257 95.825 -53.8977 -91.3778 28.1954 -2.48031 -10.2283 2.46668 -11.1168 -13.6604 -16.0041 -1.07855 2.68003 -82.1463 -52.3699 90.7403 -40.6229 -25.7198 -23.3324 5.69027 64.4945 0.0195856 3.7966 -0.214008 -11.964 10.362 0.77245 -6.49054 -18.4221 0.879882 9.54486 
-142.351 97.5155 -18.1666 149.897 -86.2253 150.299 -178.653 -2.60451 87.4446 -8.51117 18.0722 1.36365 58.0945 3.80845 10.568 35.8356 2.89248 3.19341 173.453 1.68088 93.1366 -18.7867 1.43705 -0.835216 68.9998 -0.571157 11.6333 26.5724 2.71585 2.52687 0.0239012 7.05203 -90.2784 12.7693 -0.0856761 -0.546339 1.09827 -0.109631 -0.542045 -21.436 0.082477 -0.546838 -1.42334 0.0824892 -0.546825 95.8716 -53.8159 -91.318 28.3585 -2.44874 -10.2856 2.45374 -11.0788 -13.7019 -15.9292 -1.06704 2.6331 -82.158 -52.5545 90.7375 -40.4752 -25.659 -23.4778 5.72479 64.6445 0.0196937 3.73582 -0.223158 -12.2384 10.416 0.792579 -6.14622 -18.4499 0.870822 9.19905 
-142.365 97.5107 -18.192 150.399 -86.2241 150.845 -178.635 -2.60742 87.4913 -8.52424 18.2797 1.36767 58.0703 3.83051 10.7166 35.9941 2.9612 3.14497 173.504 1.66729 93.206 -18.76 1.33862 -0.839787 68.9378 -0.58959 11.5221 26.6103 2.6631 2.57979 0.0208845 7.05301 -90.2884 12.7673 -0.0964019 -0.564924 1.09621 -0.121177 -0.560139 -21.438 0.0778318 -0.567778 -1.42532 0.0778265 -0.567788 95.761 -53.762 -91.488 28.3554 -2.54009 -10.2246 2.57581 -10.4718 -13.9077 -16.0786 -1.11969 2.94562 -82.2101 -52.4605 90.6536 -40.6887 -25.7802 -23.4758 5.86395 65.2368 0.020134 3.65722 -0.219475 -12.227 10.3667 0.842525 -5.87147 -18.4912 0.923284 8.69849 
-142.308 97.4994 -18.2287 151.265 -86.5596 151.502 -178.802 -2.31288 87.2267 -8.4769 17.8817 1.27635 57.9991 3.76068 10.8645 36.0684 2.98928 2.81143 173.404 2.1576 92.9286 -19.0951 1.19047 -0.796288 69.1169 -0.68722 11.6672 26.452 2.86705 2.55216 0.0359582 7.02234 -90.2727 12.8288 -0.0591051 -0.538095 1.1577 -0.0827289 -0.534982 -21.3766 0.105339 -0.530981 -1.36394 0.105339 -0.530984 95.8138 -53.6173 -91.4264 28.4848 -2.65518 -10.3685 2.79102 -10.0271 -13.7449 -16.8577 -1.14214 2.71023 -82.1546 -52.5539 90.7427 -40.7732 -25.811 -23.6076 6.09584 65.8958 0.0206502 3.06454 -0.184211 -12.3067 10.4279 0.801559 -5.57442 -18.4244 0.832993 8.62431 
